<?xml version="1.0" encoding="UTF-8"?>
<svg id="Layer_2" data-name="Layer 2" xmlns="http://www.w3.org/2000/svg" xmlns:xlink="http://www.w3.org/1999/xlink" viewBox="0 0 617.53 104.25">
  <defs>
    <style>
      .cls-1 {
        fill: url(#linear-gradient-2);
      }

      .cls-2 {
        fill: url(#linear-gradient-4);
      }

      .cls-3 {
        fill: url(#linear-gradient-3);
      }

      .cls-4 {
        fill: #ffffff;
      }

      .cls-5 {
        fill: url(#linear-gradient);
      }
    </style>
    <linearGradient id="linear-gradient" x1="119.5" y1="8.65" x2="16.45" y2="109.93" gradientUnits="userSpaceOnUse">
      <stop offset="0" stop-color="#ffaf3f"/>
      <stop offset="1" stop-color="#3d82ea"/>
    </linearGradient>
    <linearGradient id="linear-gradient-2" x1="111.85" y1=".86" x2="8.8" y2="102.15" xlink:href="#linear-gradient"/>
    <linearGradient id="linear-gradient-3" x1="142.47" y1="32.02" x2="39.42" y2="133.31" xlink:href="#linear-gradient"/>
    <linearGradient id="linear-gradient-4" x1="113.97" y1="3.02" x2="10.92" y2="104.31" xlink:href="#linear-gradient"/>
  </defs>
  <g id="Layer_1-2" data-name="Layer 1">
    <g>
      <g>
        <path class="cls-4" d="M186.49,25.93c18.58,0,31.35,14.33,31.35,32.01v30.23h-16.79v-30.23c0-9.29-5.26-16.79-14.55-16.79s-14.55,7.5-14.55,16.79v30.23h-16.79v-30.23c0-17.68,12.76-32.01,31.35-32.01Z"/>
        <path class="cls-4" d="M292.28,57.94c0,2.02-.22,3.92-.56,5.82h-48.8c2.46,6.38,8.51,10.97,15.78,10.97,5.37,0,10.19-2.57,13.21-6.49h18.58c-4.48,12.65-17.02,21.72-31.79,21.72-18.58,0-33.58-14.33-33.58-32.02s15-32.01,33.58-32.01,33.58,14.33,33.58,32.01ZM274.48,52.12c-2.46-6.38-8.62-10.97-15.78-10.97s-13.32,4.59-15.78,10.97h31.56Z"/>
        <path class="cls-4" d="M292.63,88.17l24.29-31.68-21.83-28.77h20.15l11.87,16.57,11.86-16.57h20.15l-21.83,28.77,24.29,31.68h-20.37l-14.11-19.48-14.11,19.48h-20.38Z"/>
        <path class="cls-4" d="M384.21,7.57v20.15h16.79v14.33h-16.79v15.89c0,9.29,7.5,16.79,16.79,16.79v15.23h-2.24c-18.58,0-31.35-14.33-31.35-32.02V7.57h16.79Z"/>
        <path class="cls-4" d="M440.19,25.93c8.73,0,16.56,3.92,21.83,10.19,5.26-6.27,13.1-10.19,21.83-10.19,18.58,0,30.22,14.33,30.22,32.01v30.23h-16.79v-30.23c0-9.29-4.14-16.79-13.43-16.79s-13.43,7.5-13.43,16.79v30.23h-16.79v-30.23c0-9.29-4.15-16.79-13.43-16.79s-13.43,7.5-13.43,16.79v30.23h-16.79v-30.23c0-17.68,11.65-32.01,30.23-32.01Z"/>
        <path class="cls-4" d="M543.75,12.05c0,5.37-4.36,9.62-9.63,9.62s-9.62-4.25-9.62-9.62,4.25-9.63,9.62-9.63,9.63,4.37,9.63,9.63ZM525.73,27.72h16.79v60.45h-16.79V27.72Z"/>
        <path class="cls-4" d="M568.16,57.94c0,9.29,7.5,16.79,16.79,16.79,6.27,0,11.53-3.47,14.33-8.51h18.02c-3.81,13.65-16.79,23.73-32.35,23.73-18.58,0-33.58-14.33-33.58-32.02s15-32.01,33.58-32.01c15.67,0,28.88,10.29,32.58,24.18h-17.69c-2.91-5.37-8.39-8.95-14.89-8.95-9.29,0-16.79,7.5-16.79,16.79Z"/>
      </g>
      <g>
        <g>
          <path class="cls-5" d="M91.69,43.61l-37.68-21.75c-3.09,5.36-5,11.33-5.62,17.46-.14,1.38.21,2.78.9,3.98l21.47,37.19c.7,1.2,1.73,2.2,3,2.77,5.62,2.53,11.75,3.86,17.93,3.86v-43.52Z"/>
          <path class="cls-1" d="M129.45,21.69h0C117.38.92,90.78-6.16,69.99,5.84c-6.84,3.95-12.21,9.47-15.89,15.84,0,0,0,0,0,0h75.34Z"/>
          <path class="cls-3" d="M129.57,21.9v-.02s-37.68,65.25-37.68,65.25c0,0,0,0,0,0,7.36,0,14.82-1.89,21.67-5.84,20.79-12,27.96-38.57,16.01-59.4Z"/>
        </g>
        <polygon class="cls-2" points="65.23 84.78 13.32 104.25 0 81.18 42.8 45.93 65.23 84.78"/>
      </g>
    </g>
  </g>
</svg>